HIERARCHY
ROOT mixamorig:Hips
{
	OFFSET 0.000000 201.639420 0.000000
	CHANNELS 6 Xposition Yposition Zposition Xrotation Yrotation Zrotation
	JOINT mixamorig:Spine
	{
		OFFSET 0.006200 19.524994 -2.481800
		CHANNELS 3 Xrotation Yrotation Zrotation
		JOINT mixamorig:Spine1
		{
			OFFSET -0.000900 22.835007 -2.825400
			CHANNELS 3 Xrotation Yrotation Zrotation
			JOINT mixamorig:Spine2
			{
				OFFSET -0.020600 26.552490 -3.193300
				CHANNELS 3 Xrotation Yrotation Zrotation
				JOINT mixamorig:Neck
				{
					OFFSET -0.060000 30.701813 1.352200
					CHANNELS 3 Xrotation Yrotation Zrotation
					JOINT mixamorig:Head
					{
						OFFSET -0.087200 22.547607 3.670900
						CHANNELS 3 Xrotation Yrotation Zrotation
						JOINT mixamorig:HeadTop_End
						{
							OFFSET -0.830600 40.355194 7.893500
							CHANNELS 3 Xrotation Yrotation Zrotation
							End Site
							{
								OFFSET 0.000000 30.592346 0.000000
							}
						}
						JOINT mixamorig:RightEye
						{
							OFFSET -6.302100 18.118591 16.197100
							CHANNELS 3 Xrotation Yrotation Zrotation
							End Site
							{
								OFFSET 0.000000 30.592346 0.000000
							}
						}
						JOINT mixamorig:LeftEye
						{
							OFFSET 6.741500 18.382690 16.401899
							CHANNELS 3 Xrotation Yrotation Zrotation
							End Site
							{
								OFFSET 0.000000 30.592346 0.000000
							}
						}
					}
				}
				JOINT mixamorig:LeftShoulder
				{
					OFFSET 11.924900 18.230499 1.425400
					CHANNELS 3 Xrotation Yrotation Zrotation
					JOINT mixamorig:LeftArm
					{
						OFFSET 25.435989 -0.697632 -5.229300
						CHANNELS 3 Xrotation Yrotation Zrotation
						JOINT mixamorig:LeftForeArm
						{
							OFFSET 54.684776 0.000000 0.000000
							CHANNELS 3 Xrotation Yrotation Zrotation
							JOINT mixamorig:LeftHand
							{
								OFFSET 55.098175 0.000000 0.000000
								CHANNELS 3 Xrotation Yrotation Zrotation
								JOINT mixamorig:LeftHandMiddle1
								{
									OFFSET 23.369751 0.000000 0.000000
									CHANNELS 3 Xrotation Yrotation Zrotation
									JOINT mixamorig:LeftHandMiddle2
									{
										OFFSET 6.378677 0.000000 0.000000
										CHANNELS 3 Xrotation Yrotation Zrotation
										JOINT mixamorig:LeftHandMiddle3
										{
											OFFSET 6.148331 0.000000 0.000000
											CHANNELS 3 Xrotation Yrotation Zrotation
											JOINT mixamorig:LeftHandMiddle4
											{
												OFFSET 6.582504 0.000000 0.000000
												CHANNELS 3 Xrotation Yrotation Zrotation
												End Site
												{
													OFFSET -1.168900 6.395691 1.028606
												}
											}
										}
									}
								}
								JOINT mixamorig:LeftHandThumb1
								{
									OFFSET 7.235672 -3.848206 5.434273
									CHANNELS 3 Xrotation Yrotation Zrotation
									JOINT mixamorig:LeftHandThumb2
									{
										OFFSET 6.568451 -3.792297 3.792300
										CHANNELS 3 Xrotation Yrotation Zrotation
										JOINT mixamorig:LeftHandThumb3
										{
											OFFSET 6.063080 -3.500519 3.500518
											CHANNELS 3 Xrotation Yrotation Zrotation
											JOINT mixamorig:LeftHandThumb4
											{
												OFFSET 4.793182 -2.767334 2.767349
												CHANNELS 3 Xrotation Yrotation Zrotation
												End Site
												{
													OFFSET 0.101639 6.054260 1.275483
												}
											}
										}
									}
								}
								JOINT mixamorig:LeftHandIndex1
								{
									OFFSET 23.101074 -0.309540 4.992809
									CHANNELS 3 Xrotation Yrotation Zrotation
									JOINT mixamorig:LeftHandIndex2
									{
										OFFSET 6.226883 0.000000 0.000000
										CHANNELS 3 Xrotation Yrotation Zrotation
										JOINT mixamorig:LeftHandIndex3
										{
											OFFSET 6.094330 0.000000 0.000000
											CHANNELS 3 Xrotation Yrotation Zrotation
											JOINT mixamorig:LeftHandIndex4
											{
												OFFSET 5.482605 0.000000 0.000000
												CHANNELS 3 Xrotation Yrotation Zrotation
												End Site
												{
													OFFSET -1.427902 5.233032 0.797164
												}
											}
										}
									}
								}
								JOINT mixamorig:LeftHandRing1
								{
									OFFSET 22.299240 0.021149 -3.964172
									CHANNELS 3 Xrotation Yrotation Zrotation
									JOINT mixamorig:LeftHandRing2
									{
										OFFSET 6.321869 0.000000 0.000000
										CHANNELS 3 Xrotation Yrotation Zrotation
										JOINT mixamorig:LeftHandRing3
										{
											OFFSET 5.899796 0.000000 0.000000
											CHANNELS 3 Xrotation Yrotation Zrotation
											JOINT mixamorig:LeftHandRing4
											{
												OFFSET 6.517899 0.000000 0.000000
												CHANNELS 3 Xrotation Yrotation Zrotation
												End Site
												{
													OFFSET -1.637299 6.232208 0.980890
												}
											}
										}
									}
								}
								JOINT mixamorig:LeftHandPinky1
								{
									OFFSET 20.463791 -0.302338 -8.562233
									CHANNELS 3 Xrotation Yrotation Zrotation
									JOINT mixamorig:LeftHandPinky2
									{
										OFFSET 6.908646 0.000000 0.000000
										CHANNELS 3 Xrotation Yrotation Zrotation
										JOINT mixamorig:LeftHandPinky3
										{
											OFFSET 4.622849 0.000000 0.000000
											CHANNELS 3 Xrotation Yrotation Zrotation
											JOINT mixamorig:LeftHandPinky4
											{
												OFFSET 5.216080 0.000000 0.000000
												CHANNELS 3 Xrotation Yrotation Zrotation
												End Site
												{
													OFFSET -0.606308 5.116241 0.814926
												}
											}
										}
									}
								}
							}
						}
					}
				}
				JOINT mixamorig:RightShoulder
				{
					OFFSET -12.001300 18.284088 1.348900
					CHANNELS 3 Xrotation Yrotation Zrotation
					JOINT mixamorig:RightArm
					{
						OFFSET -25.308500 -0.751312 -5.164599
						CHANNELS 3 Xrotation Yrotation Zrotation
						JOINT mixamorig:RightForeArm
						{
							OFFSET -54.684429 0.000000 0.000000
							CHANNELS 3 Xrotation Yrotation Zrotation
							JOINT mixamorig:RightHand
							{
								OFFSET -55.150291 0.000000 0.000000
								CHANNELS 3 Xrotation Yrotation Zrotation
								JOINT mixamorig:RightHandMiddle1
								{
									OFFSET -23.317566 0.000000 0.000000
									CHANNELS 3 Xrotation Yrotation Zrotation
									JOINT mixamorig:RightHandMiddle2
									{
										OFFSET -6.378403 0.000000 0.000000
										CHANNELS 3 Xrotation Yrotation Zrotation
										JOINT mixamorig:RightHandMiddle3
										{
											OFFSET -6.148193 0.000000 0.000000
											CHANNELS 3 Xrotation Yrotation Zrotation
											JOINT mixamorig:RightHandMiddle4
											{
												OFFSET -6.583389 0.000000 0.000000
												CHANNELS 3 Xrotation Yrotation Zrotation
												End Site
												{
													OFFSET 1.171692 6.395905 1.029786
												}
											}
										}
									}
								}
								JOINT mixamorig:RightHandThumb1
								{
									OFFSET -7.190521 -3.860474 5.435846
									CHANNELS 3 Xrotation Yrotation Zrotation
									JOINT mixamorig:RightHandThumb2
									{
										OFFSET -6.567429 -3.791718 3.791708
										CHANNELS 3 Xrotation Yrotation Zrotation
										JOINT mixamorig:RightHandThumb3
										{
											OFFSET -6.062469 -3.500153 3.500166
											CHANNELS 3 Xrotation Yrotation Zrotation
											JOINT mixamorig:RightHandThumb4
											{
												OFFSET -4.792618 -2.767029 2.767022
												CHANNELS 3 Xrotation Yrotation Zrotation
												End Site
												{
													OFFSET -0.100327 6.053253 1.276754
												}
											}
										}
									}
								}
								JOINT mixamorig:RightHandIndex1
								{
									OFFSET -23.048981 -0.310791 4.992554
									CHANNELS 3 Xrotation Yrotation Zrotation
									JOINT mixamorig:RightHandIndex2
									{
										OFFSET -6.227539 0.000000 0.000000
										CHANNELS 3 Xrotation Yrotation Zrotation
										JOINT mixamorig:RightHandIndex3
										{
											OFFSET -6.095047 0.000000 0.000000
											CHANNELS 3 Xrotation Yrotation Zrotation
											JOINT mixamorig:RightHandIndex4
											{
												OFFSET -5.484772 0.000000 0.000000
												CHANNELS 3 Xrotation Yrotation Zrotation
												End Site
												{
													OFFSET 1.420593 5.237305 0.797056
												}
											}
										}
									}
								}
								JOINT mixamorig:RightHandRing1
								{
									OFFSET -22.246323 0.020569 -3.963762
									CHANNELS 3 Xrotation Yrotation Zrotation
									JOINT mixamorig:RightHandRing2
									{
										OFFSET -6.322128 0.000000 0.000000
										CHANNELS 3 Xrotation Yrotation Zrotation
										JOINT mixamorig:RightHandRing3
										{
											OFFSET -5.900024 0.000000 0.000000
											CHANNELS 3 Xrotation Yrotation Zrotation
											JOINT mixamorig:RightHandRing4
											{
												OFFSET -6.518356 0.000000 0.000000
												CHANNELS 3 Xrotation Yrotation Zrotation
												End Site
												{
													OFFSET 1.636398 6.232697 0.982186
												}
											}
										}
									}
								}
								JOINT mixamorig:RightHandPinky1
								{
									OFFSET -20.411011 -0.303314 -8.561701
									CHANNELS 3 Xrotation Yrotation Zrotation
									JOINT mixamorig:RightHandPinky2
									{
										OFFSET -6.907349 0.000000 0.000000
										CHANNELS 3 Xrotation Yrotation Zrotation
										JOINT mixamorig:RightHandPinky3
										{
											OFFSET -4.623840 0.000000 0.000000
											CHANNELS 3 Xrotation Yrotation Zrotation
											JOINT mixamorig:RightHandPinky4
											{
												OFFSET -5.218353 0.000000 0.000000
												CHANNELS 3 Xrotation Yrotation Zrotation
												End Site
												{
													OFFSET 0.602097 5.118835 0.816273
												}
											}
										}
									}
								}
							}
						}
					}
				}
			}
		}
	}
	JOINT mixamorig:LeftUpLeg
	{
		OFFSET 18.168400 -13.561905 -0.039000
		CHANNELS 3 Xrotation Yrotation Zrotation
		JOINT mixamorig:LeftLeg
		{
			OFFSET 0.577358 -80.825211 -3.695000
			CHANNELS 3 Xrotation Yrotation Zrotation
			JOINT mixamorig:LeftFoot
			{
				OFFSET -0.577356 -83.370262 -6.520700
				CHANNELS 3 Xrotation Yrotation Zrotation
				JOINT mixamorig:LeftToeBase
				{
					OFFSET 0.750401 -20.798306 25.135401
					CHANNELS 3 Xrotation Yrotation Zrotation
					JOINT mixamorig:LeftToe_End
					{
						OFFSET -0.000500 0.001200 19.917799
						CHANNELS 3 Xrotation Yrotation Zrotation
						End Site
						{
							OFFSET 0.000000 19.917805 0.000000
						}
					}
				}
			}
		}
	}
	JOINT mixamorig:RightUpLeg
	{
		OFFSET -18.162500 -13.585098 -0.041000
		CHANNELS 3 Xrotation Yrotation Zrotation
		JOINT mixamorig:RightLeg
		{
			OFFSET -0.595024 -80.945297 -3.631900
			CHANNELS 3 Xrotation Yrotation Zrotation
			JOINT mixamorig:RightFoot
			{
				OFFSET 0.595024 -83.218193 -6.561200
				CHANNELS 3 Xrotation Yrotation Zrotation
				JOINT mixamorig:RightToeBase
				{
					OFFSET -0.753601 -20.807106 25.115000
					CHANNELS 3 Xrotation Yrotation Zrotation
					JOINT mixamorig:RightToe_End
					{
						OFFSET 0.000299 0.001700 19.918200
						CHANNELS 3 Xrotation Yrotation Zrotation
						End Site
						{
							OFFSET 0.000000 19.918203 0.000000
						}
					}
				}
			}
		}
	}
}
MOTION
Frames: 5
Frame Time: 0.033333
-1.508252 195.968460 11.293002 -2.719946 -29.278890 1.336227 2.985735 5.698603 1.278811 6.685068 12.140053 -3.799706 6.618476 12.196130 -3.740773 2.301415 -0.311969 -0.213932 -24.652671 -2.519625 1.413063 0.000000 -0.000000 0.000000 0.000000 -0.000000 0.000000 0.000000 -0.000000 0.000000 0.689286 7.080727 -5.536120 -13.984502 3.555756 -77.433001 -0.000005 -20.250263 0.000002 9.853099 4.905649 -8.890012 0.311087 2.050105 -17.254813 0.253880 1.856047 -15.576421 0.063612 0.935707 -7.778158 -0.000002 0.000000 0.000001 -0.160574 20.694814 8.081791 6.228776 18.389475 0.293558 0.563187 6.791822 2.546187 -0.000001 0.000000 0.000001 0.311657 2.051947 -17.270825 0.253362 1.854186 -15.560429 0.063609 0.935707 -7.778165 0.000000 -0.000000 0.000000 0.311659 2.051953 -17.270833 0.253363 1.854190 -15.560417 0.063612 0.935704 -7.778181 0.000000 -0.000001 -0.000001 1.503550 5.928048 -16.843388 0.251870 -2.202354 -16.052638 0.063607 0.935712 -7.778178 -0.000001 -0.000001 0.000002 0.672261 2.595603 8.184520 -7.505990 -4.332319 71.385866 0.000001 17.697835 -0.000007 1.030879 -8.528187 11.239805 0.126408 -1.322466 10.919592 0.183581 -1.590336 13.168677 0.046039 -0.800447 6.583080 0.000001 -0.000001 -0.000002 -11.411534 -14.946057 -15.736696 3.882701 -18.267819 3.624569 -1.806709 -4.698082 -0.253614 0.000000 0.000002 0.000000 0.126408 -1.322466 10.919592 0.183582 -1.590328 13.168671 0.046036 -0.800446 6.583100 -0.000000 -0.000001 -0.000001 0.126406 -1.322469 10.919588 0.183582 -1.590335 13.168687 0.046034 -0.800442 6.583083 -0.000001 0.000000 -0.000004 0.126408 -1.322464 10.919584 0.183579 -1.590334 13.168686 0.046037 -0.800446 6.583093 0.000000 -0.000000 -0.000001 0.226879 11.210680 6.148196 20.300833 1.789150 0.010848 -13.875084 0.544418 -2.758994 -7.117697 -0.000003 0.000001 -0.000000 -0.000001 0.000000 -16.101076 -5.494414 -12.284408 29.755156 -0.590270 0.048808 -11.354171 -0.499734 4.037839 -0.054395 0.000001 -0.000000 -0.000000 -0.000004 0.000000 
-1.521127 195.943115 11.883862 -2.563850 -29.281796 1.356599 2.956444 5.686431 1.286665 6.626080 12.116552 -3.755451 6.559156 12.171223 -3.700121 2.261811 -0.299129 -0.230285 -24.795366 -2.409192 1.313469 0.000000 -0.000000 0.000000 0.000000 -0.000000 0.000000 0.000000 -0.000000 0.000000 0.693343 7.028383 -5.691412 -14.006429 3.689549 -77.533384 0.000005 -20.032680 -0.000012 11.653355 4.472128 -8.734872 0.311087 2.050108 -17.254808 0.253880 1.856047 -15.576422 0.063613 0.935707 -7.778156 0.000001 0.000000 0.000002 -0.160580 20.694804 8.081793 6.228777 18.389478 0.293557 0.563187 6.791824 2.546184 0.000001 0.000000 0.000001 0.311658 2.051946 -17.270811 0.253362 1.854187 -15.560431 0.063610 0.935705 -7.778164 0.000000 -0.000000 -0.000001 0.311657 2.051955 -17.270823 0.253364 1.854192 -15.560417 0.063610 0.935706 -7.778178 -0.000000 -0.000000 0.000001 1.503550 5.928045 -16.843388 0.251871 -2.202353 -16.052638 0.063609 0.935710 -7.778173 0.000000 0.000000 -0.000001 0.672577 2.562285 8.189195 -7.500555 -4.321471 71.412811 0.000002 17.825803 0.000007 1.935747 -7.456209 10.779669 0.126409 -1.322464 10.919560 0.183580 -1.590336 13.168679 0.046039 -0.800447 6.583081 0.000003 -0.000001 0.000003 -11.411542 -14.946052 -15.736723 3.882699 -18.267812 3.624570 -1.806708 -4.698078 -0.253613 0.000002 -0.000002 -0.000001 0.126408 -1.322466 10.919547 0.183582 -1.590328 13.168675 0.046038 -0.800446 6.583103 0.000002 -0.000000 -0.000003 0.126408 -1.322467 10.919553 0.183582 -1.590335 13.168688 0.046033 -0.800442 6.583082 -0.000001 -0.000000 -0.000002 0.126408 -1.322464 10.919557 0.183580 -1.590334 13.168688 0.046036 -0.800446 6.583088 -0.000001 0.000000 0.000003 0.221715 11.234036 6.133666 20.368994 1.803729 0.010811 -13.936696 0.548867 -2.775198 -7.289973 0.000001 0.000000 0.000000 0.000001 -0.000000 -16.086132 -5.530427 -12.316843 29.784945 -0.617863 0.050327 -11.521558 -0.496412 3.941551 -0.161444 0.000006 0.000004 -0.000000 -0.000002 -0.000000 
-1.530115 195.833084 12.763144 -2.537620 -29.204386 1.355782 2.870103 5.645331 1.354806 6.449956 12.066397 -3.628979 6.379631 12.119106 -3.581642 2.405464 -0.264242 -0.270967 -24.378195 -2.147500 1.130075 0.000001 0.000000 -0.000000 0.000001 0.000000 -0.000000 0.000001 0.000000 -0.000000 0.706985 6.893894 -6.156801 -14.039077 3.836749 -77.701591 0.000009 -19.434048 0.000035 15.824290 3.581142 -8.268860 0.311085 2.050106 -17.254803 0.253881 1.856046 -15.576421 0.063612 0.935706 -7.778157 -0.000001 0.000001 0.000004 -0.160589 20.694814 8.081845 6.228776 18.389478 0.293556 0.563187 6.791822 2.546186 0.000001 -0.000002 0.000001 0.311653 2.051950 -17.270804 0.253361 1.854188 -15.560431 0.063607 0.935705 -7.778166 -0.000001 0.000001 0.000001 0.311655 2.051953 -17.270808 0.253363 1.854193 -15.560412 0.063611 0.935705 -7.778172 -0.000001 0.000000 -0.000000 1.503548 5.928042 -16.843376 0.251868 -2.202354 -16.052637 0.063606 0.935711 -7.778174 -0.000001 -0.000001 0.000003 0.668308 2.589720 8.172478 -7.454670 -4.408424 71.556183 -0.000004 17.785845 0.000006 5.076783 -6.132372 10.142878 0.126410 -1.322465 10.919552 0.183580 -1.590336 13.168677 0.046039 -0.800448 6.583079 0.000003 0.000000 0.000001 -11.411544 -14.946042 -15.736708 3.882701 -18.267811 3.624570 -1.806711 -4.698084 -0.253612 -0.000002 -0.000003 -0.000001 0.126409 -1.322463 10.919560 0.183583 -1.590327 13.168674 0.046036 -0.800446 6.583096 0.000001 -0.000001 -0.000003 0.126408 -1.322466 10.919559 0.183583 -1.590335 13.168686 0.046034 -0.800444 6.583086 -0.000001 -0.000000 -0.000004 0.126409 -1.322464 10.919567 0.183578 -1.590334 13.168688 0.046036 -0.800447 6.583092 -0.000002 0.000000 0.000001 0.449805 11.270842 6.044967 20.430405 1.829452 0.010719 -14.128095 0.560389 -2.811960 -7.426635 -0.000004 0.000003 -0.000000 -0.000001 0.000000 -15.968668 -5.686964 -12.503874 30.015335 -0.659012 0.052084 -11.883013 -0.502927 3.852056 -0.181914 0.000022 -0.000000 0.000000 -0.000000 -0.000000 
-1.551580 195.518341 14.154273 -2.828562 -28.972795 1.292149 2.674653 5.540430 1.564146 6.055103 11.965666 -3.364794 5.975114 12.016194 -3.331912 2.956669 -0.193562 -0.345636 -22.723481 -1.652387 0.835906 0.000001 0.000000 0.000000 0.000001 0.000000 0.000000 0.000001 0.000000 0.000000 0.724935 6.693891 -6.873939 -13.805955 3.872200 -77.809119 0.000005 -18.314256 0.000023 22.099019 2.436134 -7.711801 0.311082 2.050110 -17.254815 0.253880 1.856046 -15.576424 0.063612 0.935707 -7.778157 0.000002 0.000000 -0.000000 -0.160586 20.694812 8.081819 6.228776 18.389473 0.293558 0.563188 6.791819 2.546186 0.000004 0.000000 -0.000001 0.311658 2.051954 -17.270804 0.253363 1.854186 -15.560429 0.063611 0.935705 -7.778164 -0.000001 -0.000000 -0.000001 0.311655 2.051959 -17.270818 0.253363 1.854189 -15.560416 0.063613 0.935708 -7.778178 -0.000002 0.000000 -0.000001 1.503550 5.928048 -16.843366 0.251871 -2.202354 -16.052637 0.063609 0.935712 -7.778172 0.000002 0.000000 0.000000 0.658037 2.731106 8.125360 -7.033980 -4.769983 71.709569 0.000002 17.639962 -0.000019 10.711365 -4.618361 9.513672 0.126407 -1.322471 10.919571 0.183583 -1.590336 13.168675 0.046038 -0.800446 6.583083 -0.000001 0.000000 0.000001 -11.411535 -14.946050 -15.736729 3.882697 -18.267817 3.624570 -1.806711 -4.698077 -0.253612 -0.000001 0.000002 0.000000 0.126408 -1.322469 10.919585 0.183582 -1.590329 13.168675 0.046037 -0.800446 6.583098 -0.000000 0.000000 -0.000001 0.126406 -1.322472 10.919580 0.183583 -1.590335 13.168685 0.046035 -0.800443 6.583087 0.000001 -0.000000 0.000000 0.126411 -1.322469 10.919578 0.183579 -1.590334 13.168687 0.046038 -0.800447 6.583088 -0.000002 0.000001 0.000004 1.212061 11.364222 5.827999 20.436921 1.878794 0.010255 -14.625865 0.594620 -2.924837 -7.401324 0.000003 -0.000002 0.000000 0.000001 0.000001 -15.642535 -5.980677 -12.965625 30.745274 -0.754512 0.052692 -12.674332 -0.520594 3.735947 -0.069899 0.000005 0.000004 -0.000000 -0.000001 -0.000000 
-1.597869 195.020477 16.269753 -3.691516 -28.474371 1.071739 2.310419 5.307122 2.089806 5.344507 11.790013 -2.920517 5.242818 11.839288 -2.909862 4.181654 -0.080591 -0.454647 -19.044225 -0.890090 0.416585 -0.000000 0.000000 0.000000 -0.000000 0.000000 0.000000 -0.000000 0.000000 0.000000 0.737067 6.438790 -7.724695 -12.785090 3.547598 -77.657154 0.000000 -17.043940 0.000001 31.450149 0.850527 -7.588332 0.311096 2.050096 -17.254825 0.253881 1.856047 -15.576422 0.063612 0.935705 -7.778158 -0.000004 -0.000001 0.000000 -0.160574 20.694809 8.081797 6.228781 18.389477 0.293557 0.563187 6.791817 2.546184 0.000004 0.000002 0.000000 0.311661 2.051944 -17.270820 0.253360 1.854186 -15.560429 0.063610 0.935707 -7.778159 -0.000002 0.000001 0.000001 0.311660 2.051953 -17.270818 0.253362 1.854192 -15.560416 0.063613 0.935705 -7.778179 -0.000000 -0.000001 -0.000002 1.503557 5.928047 -16.843366 0.251871 -2.202354 -16.052635 0.063612 0.935714 -7.778174 0.000001 -0.000001 -0.000003 0.639798 3.032809 8.042873 -5.376742 -5.771696 71.623556 -0.000004 18.546846 -0.000008 19.272902 -2.893827 9.440909 0.126416 -1.322464 10.919550 0.183577 -1.590336 13.168677 0.046044 -0.800447 6.583082 0.000000 0.000001 -0.000000 -11.411539 -14.946045 -15.736691 3.882700 -18.267817 3.624568 -1.806711 -4.698080 -0.253612 0.000001 0.000001 -0.000003 0.126414 -1.322463 10.919557 0.183581 -1.590328 13.168670 0.046036 -0.800447 6.583101 0.000001 -0.000000 -0.000003 0.126415 -1.322463 10.919557 0.183582 -1.590337 13.168689 0.046035 -0.800442 6.583086 0.000001 -0.000000 -0.000002 0.126416 -1.322463 10.919557 0.183581 -1.590334 13.168684 0.046035 -0.800446 6.583095 0.000001 -0.000000 -0.000000 2.853431 11.523105 5.477184 20.240026 1.949861 0.010184 -15.288719 0.658196 -3.150575 -7.330318 0.000012 0.000000 0.000000 -0.000000 -0.000001 -14.838296 -6.510135 -13.746576 32.009869 -1.017878 0.053678 -13.968142 -0.497521 3.238465 -0.301324 0.000002 -0.000002 -0.000000 0.000002 -0.000001 
